<svg width="202" height="99" viewBox="0 0 202 99" fill="none" xmlns="http://www.w3.org/2000/svg">
<path d="M73.7815 38.9C73.8815 32.2 75.8815 26.2 80.3815 21.1C86.0815 14.6 94.4815 13.5 100.982 15.6C101.982 15.9 102.882 16.4 103.782 17C104.282 17.4 104.482 17.3 104.582 16.7C105.082 13.6 105.582 10.5 106.082 7.3C106.482 5.1 106.882 2.8 107.182 0.6C107.282 0.1 107.382 0 107.882 0C109.782 0.1 111.682 0.1 113.482 0.1C114.082 0.1 114.182 0.4 114.082 0.9C113.282 5.3 112.582 9.7 111.882 14.1C110.882 19.9 109.882 25.6 109.082 31.4C108.582 34.8 107.982 38.2 106.582 41.3C103.682 47.8 98.9815 52.2 91.8815 53.6C88.2815 54.3 84.6815 54.2 81.2815 52.6C76.9815 50.7 74.8815 47.2 74.1815 42.8C73.7815 41.5 73.7815 40.2 73.7815 38.9ZM101.282 29.7C101.282 28.7 101.282 27.6 101.082 26.6C100.582 23.9 99.1815 21.8 96.3815 21.1C94.9815 20.7 93.5815 20.7 92.0815 21C88.8815 21.5 86.5815 23.4 84.9815 26C81.9815 30.7 80.9815 36 81.6815 41.5C82.0815 45.1 83.8815 47 86.8815 47.6C88.2815 47.9 89.7815 47.9 91.1815 47.6C94.3815 46.9 96.3815 44.8 97.9815 42.2C100.282 38.2 101.282 34.1 101.282 29.7Z" fill="white"/>
<path d="M25.8815 44.2C25.5815 46.7 25.3815 49.1 25.0815 51.5C25.0815 51.8 24.9815 52 24.6815 52.1C19.9815 53.6 15.1815 54.5 10.2815 53.4C5.68151 52.4 2.48151 49.6 1.18151 45.1C-1.11849 36.9 -0.218493 29.2 5.28151 22.4C11.2815 14.9 20.4815 13.4 27.4815 15.5C30.8815 16.5 33.4815 18.7 33.9815 22.4C34.6815 27 33.0815 30.8 29.2815 33.6C25.8815 36.1 21.9815 37.2 17.7815 37.4C14.5815 37.6 11.3815 37.3 8.38151 36C8.08151 35.9 7.88151 36 7.88151 36.4C7.68151 38.1 7.68151 39.9 8.18151 41.6C9.08151 44.9 11.5815 46.9 14.9815 47.5C18.4815 48 21.4815 47.1 24.3815 45.2C24.7815 44.8 25.2815 44.5 25.8815 44.2ZM15.9815 31.2C17.0815 31.2 19.0815 31 20.8815 30.5C22.7815 30 24.6815 29.3 25.8815 27.7C27.8815 25.2 26.8815 22 23.9815 21.2C21.8815 20.7 19.7815 20.8 17.7815 21.4C13.3815 22.6 11.0815 25.9 9.48151 29.8C9.28151 30.3 9.58151 30.3 9.88151 30.4C11.5815 31 13.3815 31.3 15.9815 31.2Z" fill="white"/>
<path d="M58.5815 49.4C54.5815 53.3 49.6815 54.1 44.4815 53.7C39.7815 53.4 36.5815 49.8 36.3815 44.7C36.2815 41.9 36.7815 39.3 37.2815 36.6C38.4815 29.7 39.6815 22.9 40.8815 16C40.9815 15.4 41.1815 15.2 41.8815 15.2C43.8815 15.2 45.9815 15.2 47.9815 15.2C48.5815 15.2 48.6815 15.3 48.5815 15.9C47.0815 23.9 45.6815 32 44.1815 40.1C44.0815 40.8 44.0815 41.6 44.0815 42.4C44.1815 45.7 45.8815 47.5 49.1815 47.6C54.4815 47.8 59.5815 43.6 60.5815 38.4C61.9815 31 63.2815 23.7 64.6815 16.3C64.7815 15.6 64.9815 15.2 65.8815 15.3C67.7815 15.4 69.7815 15.3 71.6815 15.3C72.3815 15.3 72.5815 15.3 72.4815 16.1C70.2815 27.7 68.1815 39.3 66.0815 50.9C65.9815 51.2 65.9815 51.6 65.8815 51.9C65.6815 53.2 65.6815 53.2 64.2815 53.2C62.3815 53.2 60.4815 53.2 58.6815 53.2C58.1815 53.2 57.8815 53.1 58.0815 52.5C58.1815 51.5 58.3815 50.4 58.5815 49.4Z" fill="white"/>
<path d="M171.281 88.7C170.981 91.1 170.781 93.5 170.581 95.9C170.581 96.2 170.481 96.4 170.181 96.5C165.681 97.9 161.181 98.8 156.481 98C151.181 97 147.781 93.8 146.481 88.5C144.881 81.9 145.381 75.4 148.981 69.4C154.281 60.7 162.981 57.8 171.781 59.5C172.981 59.7 174.181 60.2 175.281 60.8C178.381 62.5 179.881 65.1 179.781 68.6C179.781 72.9 177.881 76.2 174.281 78.5C170.681 80.9 166.581 81.9 162.281 81.9C159.481 81.9 156.681 81.6 154.081 80.5C153.581 80.3 153.481 80.5 153.481 80.9C153.281 82.6 153.281 84.3 153.681 85.9C154.581 89.4 156.981 91.2 160.381 91.8C163.881 92.4 167.081 91.5 169.981 89.6C170.281 89.3 170.681 88.9 171.281 88.7ZM160.681 75.7C163.481 75.7 166.181 75.4 168.781 74.2C169.981 73.7 170.981 72.9 171.681 71.8C173.281 69.1 172.081 66.2 169.181 65.7C166.981 65.3 164.681 65.4 162.581 66.2C158.581 67.6 156.481 70.7 154.881 74.4C154.681 74.8 154.881 74.9 155.181 75C157.081 75.5 158.781 75.7 160.681 75.7Z" fill="white"/>
<path d="M197.082 50.2C196.582 52.5 196.082 54.6 195.582 56.7C195.282 57.9 194.982 59.2 194.682 60.4C194.582 61 194.682 61.1 195.282 61.1C196.982 61.1 198.682 61.1 200.282 61.1C201.082 61.1 201.182 61.3 200.982 62C200.682 63.4 200.282 64.9 200.082 66.4C199.982 67 199.782 67.1 199.182 67.1C197.482 67.1 195.682 67.1 193.982 67.1C193.482 67.1 193.182 67.2 193.082 67.7C191.782 74.1 190.482 80.4 189.182 86.8C188.982 88 188.982 89.1 189.282 90.3C189.582 91.4 190.082 92.3 191.182 92.8C191.682 93 191.582 93.2 191.282 93.6C189.782 95.3 188.382 96.9 186.882 98.6C186.582 99 186.282 99.1 185.782 98.8C182.882 97.3 181.682 94.8 181.282 91.7C180.982 89.2 181.682 86.9 182.182 84.6C184.282 74.5 186.482 64.3 188.482 54.2C188.582 53.8 188.582 53.5 189.082 53.4C191.782 52.2 194.382 51.2 197.082 50.2Z" fill="white"/>
<path d="M132.781 98.4C131.581 98.4 130.281 98.4 129.081 98.4C128.381 98.4 128.282 98.2 128.382 97.6C128.982 94.1 129.581 90.5 130.081 87C130.681 83.2 131.381 79.3 131.981 75.5C132.681 71 129.481 67.5 125.281 67.9C121.881 68.3 119.181 70.8 118.681 74.2C117.381 82.1 116.082 89.9 114.882 97.8C114.782 98.4 114.581 98.6 113.981 98.6C111.581 98.6 109.181 98.6 106.781 98.6C106.281 98.6 106.081 98.5 106.181 97.9C107.681 89.7 108.881 81.5 110.481 73.3C111.081 70 111.981 66.8 114.181 64.1C117.581 59.9 122.082 58.2 127.382 58.7C130.182 59 132.782 59.6 135.182 61.1C137.782 62.8 139.082 65.3 139.882 68.1C140.882 71.6 140.682 75.1 140.182 78.7C139.282 84.9 138.282 91.2 137.382 97.4C137.282 98.2 136.982 98.5 136.182 98.4C135.082 98.3 133.981 98.4 132.781 98.4Z" fill="white"/>
<path d="M149.482 29.3C149.182 34.5 148.182 39.7 145.182 44.4C140.782 51.4 132.882 55 124.882 53.6C118.982 52.6 115.082 48.7 114.282 42.4C113.182 34 115.382 26.4 121.382 20.2C126.782 14.7 133.382 13.2 140.782 15.3C145.782 16.8 148.382 20.4 149.282 25.5C149.482 26.6 149.482 27.8 149.482 29.3ZM121.982 38.6C121.982 39.1 122.082 39.8 122.082 40.6C122.482 45.4 125.482 47.8 130.282 47.4C133.182 47.1 135.382 45.8 137.082 43.5C140.882 38.5 141.982 32.7 141.182 26.6C140.882 24.3 139.782 22.3 137.382 21.5C134.382 20.4 131.382 20.7 128.782 22.6C126.582 24.2 124.982 26.3 123.982 28.8C122.782 31.9 122.182 35.1 121.982 38.6Z" fill="white"/>
<path d="M137.482 57.5C138.882 57 140.182 56.5 141.382 55.8C146.582 52.8 149.882 48.2 152.082 42.7C152.482 41.7 152.782 40.6 153.182 39.5C153.282 39.1 153.482 38.9 153.982 39.1C155.782 39.7 157.682 40.3 159.482 40.9C159.982 41 160.082 41.2 159.982 41.7C157.682 51.2 152.682 58.7 143.982 63.5C143.382 63.8 143.182 63.7 142.882 63.1C141.982 61 140.382 59.4 138.482 58.2C138.082 58 137.682 57.9 137.482 57.5Z" fill="white"/>
<path d="M116.682 56.1C110.882 59.5 108.182 64.8 107.082 71.1C106.882 72 106.882 72.8 106.782 73.7C106.782 74.1 106.682 74.3 106.282 74.3C104.282 74.2 102.182 74 100.182 73.9C99.8815 73.9 99.6815 73.7 99.6815 73.4C100.382 64.2 103.282 56 110.682 49.9C110.782 49.8 110.882 49.7 110.982 49.7C111.182 49.5 111.382 49.5 111.482 49.9C112.282 52.7 114.182 54.6 116.582 56.1C116.582 55.9 116.582 56 116.682 56.1Z" fill="white"/>
</svg>
